<?xml version="1.0" standalone="no"?>
<!DOCTYPE svg PUBLIC "-//W3C//DTD SVG 20010904//EN"
 "http://www.w3.org/TR/2001/REC-SVG-20010904/DTD/svg10.dtd">
<svg version="1.0" xmlns="http://www.w3.org/2000/svg"
 width="512.000000pt" height="512.000000pt" viewBox="0 0 512.000000 512.000000"
 preserveAspectRatio="xMidYMid meet">
<metadata>
Created by potrace 1.11, written by Peter Selinger 2001-2013
</metadata>
<g transform="translate(0.000000,512.000000) scale(0.100000,-0.100000)"
fill="#000000" stroke="none">
<path d="M0 2600 l0 -1270 2550 0 2550 0 0 1270 0 1270 -2550 0 -2550 0 0
-1270z m2560 630 l0 -560 -1240 0 -1240 0 0 560 0 560 1240 0 1240 0 0 -560z
m2460 0 l0 -560 -1190 0 -1190 0 0 560 0 560 1190 0 1190 0 0 -560z m-3740
-1230 l0 -590 -600 0 -600 0 0 590 0 590 600 0 600 0 0 -590z m2480 0 l0 -590
-1200 0 -1200 0 0 590 0 590 1200 0 1200 0 0 -590z m1260 0 l0 -590 -590 0
-590 0 0 590 0 590 590 0 590 0 0 -590z"/>
</g>
</svg>
